<svg height="16" viewBox="0 0 16 16" width="16" fill='#D4D4D4' xmlns="http://www.w3.org/2000/svg"><path d="m7.375 3.67c0-.645-.56-1.17-1.25-1.17s-1.25.525-1.25 1.17c0 .646.56 1.17 1.25 1.17s1.25-.524 1.25-1.17zm0 8.66c0-.646-.56-1.17-1.25-1.17s-1.25.524-1.25 1.17c0 .645.56 1.17 1.25 1.17s1.25-.525 1.25-1.17zm-1.25-5.5c.69 0 1.25.525 1.25 1.17s-.56 1.17-1.25 1.17-1.25-.525-1.25-1.17.56-1.17 1.25-1.17zm5-3.16c0-.645-.56-1.17-1.25-1.17s-1.25.525-1.25 1.17c0 .646.56 1.17 1.25 1.17s1.25-.524 1.25-1.17zm-1.25 7.49c.69 0 1.25.524 1.25 1.17 0 .645-.56 1.17-1.25 1.17s-1.25-.525-1.25-1.17c0-.646.56-1.17 1.25-1.17zm1.25-3.16c0-.645-.56-1.17-1.25-1.17s-1.25.525-1.25 1.17.56 1.17 1.25 1.17 1.25-.525 1.25-1.17z" fill-rule="evenodd"/></svg>